<?xml version="1.0" standalone="no"?>
<!DOCTYPE svg PUBLIC "-//W3C//DTD SVG 20010904//EN"
 "http://www.w3.org/TR/2001/REC-SVG-20010904/DTD/svg10.dtd">
<svg version="1.0" xmlns="http://www.w3.org/2000/svg"
 width="892.000000pt" height="892.000000pt" viewBox="0 0 892.000000 892.000000"
 preserveAspectRatio="xMidYMid meet">
<metadata>
Created by potrace 1.14, written by Peter Selinger 2001-2017
</metadata>
<g transform="translate(0.000000,892.000000) scale(0.100000,-0.100000)"
fill="#000000" stroke="none">
<path d="M7940 8884 c-58 -19 -112 -37 -120 -39 -22 -5 -183 -55 -200 -62 -18
-8 -17 -7 -60 -17 -19 -5 -39 -11 -45 -15 -5 -3 -12 -6 -15 -6 -3 -1 -32 -9
-65 -20 -33 -10 -63 -19 -67 -21 -5 -1 -9 -2 -10 -4 -2 -1 -10 -3 -18 -5 -8
-2 -24 -6 -35 -9 -11 -2 -40 -12 -65 -21 -25 -9 -52 -18 -60 -20 -8 -1 -64
-19 -125 -38 -177 -57 -279 -88 -290 -88 -5 -1 -18 -5 -28 -11 -10 -5 -27 -11
-38 -14 -10 -2 -27 -6 -37 -8 -10 -2 -35 -11 -55 -20 -20 -8 -37 -13 -37 -10
0 3 -9 0 -21 -6 -11 -7 -32 -14 -46 -16 -14 -3 -44 -11 -66 -20 -23 -8 -50
-17 -60 -19 -16 -4 -262 -80 -347 -108 -19 -6 -37 -12 -40 -12 -36 -9 -67 -19
-75 -24 -5 -3 -15 -6 -22 -7 -13 -2 -80 -23 -103 -31 -8 -4 -17 -7 -20 -8 -10
-3 -95 -29 -100 -30 -3 -1 -31 -9 -62 -19 -32 -9 -61 -17 -65 -18 -5 0 -13 -4
-20 -10 -7 -5 -17 -7 -23 -3 -5 3 -10 1 -10 -4 0 -6 -3 -10 -7 -9 -5 1 -28 -5
-53 -12 -25 -7 -52 -15 -60 -16 -8 -2 -23 -7 -35 -13 -11 -5 -60 -21 -110 -36
-49 -15 -99 -29 -110 -33 -11 -3 -22 -7 -25 -7 -3 -1 -43 -14 -90 -29 -47 -15
-98 -31 -115 -36 -35 -9 -141 -42 -305 -95 -63 -20 -122 -38 -130 -40 -8 -2
-27 -8 -43 -14 -15 -6 -38 -13 -50 -15 -12 -2 -41 -11 -64 -19 -22 -9 -44 -13
-47 -10 -3 4 -6 1 -6 -5 0 -7 -9 -12 -20 -12 -10 0 -29 -4 -42 -10 -13 -5 -77
-25 -143 -45 -66 -20 -127 -39 -135 -42 -8 -4 -17 -7 -20 -7 -41 -9 -108 -31
-118 -39 -6 -5 -12 -7 -12 -4 0 3 -26 -3 -57 -14 -52 -18 -74 -25 -108 -32 -5
-2 -14 -5 -20 -8 -5 -4 -23 -10 -40 -14 -16 -5 -32 -9 -35 -10 -3 -1 -32 -10
-65 -19 -33 -10 -98 -31 -145 -46 -47 -15 -119 -37 -160 -50 -41 -12 -88 -27
-105 -33 -16 -6 -34 -12 -40 -13 -5 -1 -48 -14 -95 -29 -47 -15 -89 -28 -95
-29 -5 -2 -17 -6 -25 -9 -8 -3 -55 -17 -105 -32 -49 -14 -97 -29 -105 -32 -17
-7 -12 -6 -70 -23 -25 -7 -49 -14 -55 -15 -5 -2 -32 -10 -60 -20 -27 -9 -57
-18 -65 -20 -8 -2 -37 -11 -64 -20 -26 -9 -56 -18 -65 -20 -9 -2 -42 -13 -73
-24 -32 -11 -58 -18 -58 -15 0 3 -10 -1 -22 -8 -13 -6 -28 -13 -34 -14 -13 -2
-172 -50 -234 -71 -25 -8 -49 -16 -55 -17 -5 -2 -17 -6 -25 -9 -8 -3 -55 -18
-105 -32 -115 -35 -155 -73 -204 -195 -19 -47 -42 -101 -50 -120 -8 -19 -15
-37 -16 -40 -2 -8 -17 -42 -80 -185 -31 -71 -57 -136 -58 -142 0 -7 -4 -13 -9
-13 -4 0 -8 -6 -8 -12 0 -7 -27 -76 -61 -153 -33 -77 -79 -185 -101 -240 -23
-55 -44 -102 -47 -105 -3 -3 -7 -12 -9 -20 -2 -8 -9 -28 -16 -45 -8 -16 -71
-165 -141 -330 -146 -344 -162 -382 -177 -412 -6 -11 -9 -52 -6 -90 9 -157
132 -242 284 -198 32 9 66 18 74 20 8 2 27 8 43 14 15 6 27 8 27 5 0 -2 9 0
21 6 11 6 30 13 42 16 12 2 52 13 90 25 37 11 73 22 80 23 7 2 19 6 27 9 8 3
24 8 35 10 28 8 216 62 300 87 39 12 77 23 85 25 8 2 38 11 65 19 114 34 224
66 287 84 l67 19 27 -61 c37 -83 81 -180 112 -246 37 -81 56 -124 56 -132 1
-4 7 -13 14 -20 6 -6 12 -17 12 -23 0 -6 8 -29 19 -51 27 -57 66 -142 91 -199
12 -27 35 -77 50 -110 15 -33 39 -86 54 -118 14 -31 37 -81 50 -110 13 -28 34
-74 46 -102 12 -27 34 -75 47 -105 52 -114 131 -287 153 -335 12 -27 32 -72
45 -100 13 -27 36 -77 51 -110 14 -33 39 -87 54 -120 15 -33 37 -82 50 -110
12 -27 34 -77 50 -110 15 -33 34 -76 43 -95 51 -115 116 -257 152 -335 63
-134 165 -366 165 -375 0 -5 4 -10 9 -10 5 0 13 -15 16 -32 4 -18 10 -35 14
-38 3 -3 28 -54 55 -115 27 -60 64 -144 83 -185 20 -41 41 -88 48 -105 8 -16
34 -74 59 -129 25 -54 46 -100 46 -102 0 -3 59 -132 98 -214 9 -19 17 -37 17
-40 1 -3 14 -32 29 -65 78 -166 126 -275 126 -285 0 -5 5 -10 10 -10 6 0 10
-7 10 -14 0 -8 22 -63 50 -121 27 -58 50 -109 50 -113 0 -4 11 -24 25 -45 36
-52 95 -80 178 -81 15 -1 27 -3 27 -6 0 -3 12 -6 28 -6 15 -1 50 -4 77 -8 28
-3 68 -8 90 -11 76 -8 130 -16 160 -21 17 -3 46 -7 65 -9 116 -12 195 -22 195
-25 0 -1 16 -3 35 -5 19 -2 55 -6 80 -9 25 -3 65 -8 90 -11 97 -11 136 -16
160 -20 14 -2 46 -6 73 -10 26 -3 68 -7 95 -10 26 -4 58 -8 72 -10 14 -2 52
-7 85 -11 33 -3 68 -8 77 -9 9 -2 48 -7 85 -10 37 -4 71 -9 74 -11 4 -2 40 -6
80 -10 41 -3 83 -8 94 -11 11 -4 36 -8 55 -9 19 -2 53 -5 75 -8 22 -3 58 -8
80 -11 22 -3 60 -7 85 -9 25 -3 45 -5 45 -6 0 -9 144 -15 335 -15 l235 0 46
35 c69 52 115 125 118 188 2 45 -7 69 -89 238 -51 104 -113 234 -140 289 -26
55 -84 174 -128 265 -135 280 -188 391 -241 505 -28 61 -56 117 -61 125 -10
15 -14 23 -85 175 -24 50 -80 167 -125 260 -45 94 -104 215 -130 270 -26 55
-83 172 -125 260 -80 165 -157 325 -265 550 -34 72 -95 198 -135 280 -39 83
-90 188 -113 235 -22 47 -78 164 -125 260 -174 361 -216 448 -267 555 -29 61
-76 158 -105 218 -29 59 -51 107 -48 107 4 0 0 8 -8 18 -13 14 -50 87 -54 102
-1 5 -52 111 -151 315 -27 55 -49 102 -49 105 -1 3 -9 21 -20 40 -11 19 -20
37 -20 40 0 3 -27 58 -59 124 -31 65 -56 119 -54 121 2 1 35 10 73 20 39 10
76 23 83 28 6 5 12 7 12 3 0 -3 12 -1 28 5 15 6 37 13 50 15 13 3 44 12 69 20
25 9 53 17 62 19 9 2 39 11 66 19 135 39 201 58 210 60 6 2 37 11 70 21 33 10
65 20 70 21 6 1 49 14 97 28 48 15 95 29 105 31 10 2 56 16 103 30 47 15 94
28 105 30 12 3 45 13 75 23 30 11 60 20 65 21 6 1 28 7 50 13 22 6 45 13 50
14 59 16 427 125 450 134 17 6 30 11 30 10 0 -1 20 4 45 11 57 16 61 17 85 23
11 2 74 21 140 41 66 21 127 39 135 40 8 2 47 14 85 25 39 12 79 24 90 27 11
3 58 17 105 31 47 14 90 27 95 28 103 20 165 63 198 136 39 88 72 173 69 181
-1 4 2 7 8 7 5 0 10 6 10 14 0 11 42 121 80 211 47 108 67 164 63 169 -4 3 -1
6 5 6 7 0 12 6 12 14 0 12 20 64 52 136 7 14 12 27 12 30 2 8 122 309 167 415
5 11 18 45 30 75 11 30 26 69 34 85 7 17 34 84 60 150 26 66 54 134 61 152 8
17 14 33 14 36 0 2 8 22 17 43 9 22 17 41 18 44 1 3 8 21 17 40 8 19 21 53 29
75 8 22 18 43 22 46 5 3 8 9 8 13 -1 7 6 28 22 70 32 86 -1 199 -77 260 -33
27 -46 31 -109 33 -60 2 -90 -4 -177 -33z"/>
</g>
</svg>
