<?xml version="1.0" encoding="utf-8"?>
<!-- Generator: Adobe Illustrator 22.0.0, SVG Export Plug-In . SVG Version: 6.00 Build 0)  -->
<svg version="1.1" id="Layer_1" xmlns="http://www.w3.org/2000/svg" xmlns:xlink="http://www.w3.org/1999/xlink" x="0px" y="0px"
	 viewBox="0 0 388.9 446.4" style="enable-background:new 0 0 388.9 446.4;" xml:space="preserve" width="53.87" height="43.61">
<style type="text/css">
	.st0{fill:url(#SVGID_1_);}
	.st1{fill:url(#SVGID_2_);}
</style>
<g>
	
		<linearGradient id="SVGID_1_" gradientUnits="userSpaceOnUse" x1="-638.9928" y1="-371.6088" x2="-55.5464" y2="-444.3841" gradientTransform="matrix(0.4338 0.901 -1.2498 0.6017 -208.2039 791.2244)">
		<stop  offset="0" style="stop-color:#2737D4"/>
		<stop  offset="0.1788" style="stop-color:#2640D8"/>
		<stop  offset="0.4761" style="stop-color:#245AE4"/>
		<stop  offset="0.8529" style="stop-color:#2083F7"/>
		<stop  offset="1" style="stop-color:#1E95FF"/>
	</linearGradient>
	<path class="st0" d="M181.4,122.1l148.8,309.1c3.7,7.7-7,17.9-17.5,16.6L187.8,432c-3.5-0.4-6.2-2.2-7.4-4.8L39.5,116.9
		C36,109,46.9,99,57.3,100.5l117,17C177.6,117.9,180.2,119.6,181.4,122.1z"/>
	
		<linearGradient id="SVGID_2_" gradientUnits="userSpaceOnUse" x1="-840.6295" y1="-1099.5631" x2="-257.1831" y2="-1172.3384" gradientTransform="matrix(0.9547 -0.2976 0.3271 1.0492 1042.5564 1161.903)">
		<stop  offset="0" style="stop-color:#2737D4"/>
		<stop  offset="0.1788" style="stop-color:#2640D8"/>
		<stop  offset="0.4761" style="stop-color:#245AE4"/>
		<stop  offset="0.8529" style="stop-color:#2083F7"/>
		<stop  offset="1" style="stop-color:#1E95FF"/>
	</linearGradient>
	<path class="st1" d="M46.5,102.2L374,0.1c8.2-2.6,15.8,6.7,12.4,15.1l-40.3,100.3c-1.1,2.8-3.4,4.9-6.1,5.7L12.9,216.9
		c-8.2,2.4-15.8-7.1-12.2-15.4l39.9-93.8C41.7,105,43.9,103.1,46.5,102.2z"/>
</g>
</svg>
